<svg width="120" height="120" viewBox="0 0 120 120" fill="none" xmlns="http://www.w3.org/2000/svg">
<g filter="url(#filter0_d)">
<circle cx="60" cy="58" r="50" fill="#2F80ED"/>
</g>
<g clip-path="url(#clip0)">
<path d="M39.4058 65.0458C35.6082 65.0458 32.5302 68.1225 32.5302 71.9208C32.5302 75.7191 35.608 78.7959 39.4058 78.7959C43.205 78.7959 46.2819 75.7193 46.2819 71.9208C46.2819 68.1223 43.205 65.0458 39.4058 65.0458V65.0458ZM39.4058 74.9095C37.755 74.9095 36.4173 73.5721 36.4173 71.9208C36.4173 70.2691 37.755 68.9321 39.4058 68.9321C41.0569 68.9321 42.3956 70.2691 42.3956 71.9208C42.3956 73.5721 41.0569 74.9095 39.4058 74.9095ZM79.7703 65.0458C75.9724 65.0458 72.8948 68.1225 72.8948 71.9208C72.8948 75.7191 75.9722 78.7959 79.7703 78.7959C83.5694 78.7959 86.6464 75.7193 86.6464 71.9208C86.6464 68.1223 83.5694 65.0458 79.7703 65.0458V65.0458ZM79.7703 74.9095C78.1195 74.9095 76.7816 73.5721 76.7816 71.9208C76.7816 70.2691 78.1195 68.9321 79.7703 68.9321C81.4215 68.9321 82.7603 70.2691 82.7603 71.9208C82.7603 73.5721 81.4215 74.9095 79.7703 74.9095Z" fill="white"/>
<path d="M92.8924 37.2044H31.2172C28.9576 37.2044 26.7392 39.0159 26.2871 41.2298L23.8218 50.2289C23.3697 52.4429 23 56.1031 23 58.3629V67.8123C23 70.0717 24.8489 71.9206 27.1085 71.9206H31.2976C31.2976 67.4504 34.935 63.8132 39.4056 63.8132C43.8766 63.8132 47.5142 67.45 47.5142 71.9206H71.6616C71.6616 67.4504 75.2992 63.8132 79.7696 63.8132C84.2411 63.8132 87.8785 67.45 87.8785 71.9206H92.8913C95.1513 71.9206 96.9998 70.0721 96.9998 67.8123V41.3126C97.0008 39.053 95.152 37.2044 92.8924 37.2044ZM40.0733 54.5392H30.4986L32.016 50.9456C32.137 50.6456 32.1353 50.3101 32.0112 50.0113C31.8871 49.7126 31.6505 49.4747 31.3525 49.3488C31.0545 49.223 30.719 49.2193 30.4183 49.3387C30.1177 49.458 29.876 49.6908 29.7454 49.9867L27.864 54.4428C26.5939 54.1089 25.8208 52.9195 26.0825 51.5098L28.2912 42.6961C28.6005 41.0299 30.2401 39.6664 31.9349 39.6664H40.0735L40.0733 54.5392ZM58.3558 54.5392H42.5383V39.6664H58.3558V54.5392V54.5392ZM76.6382 54.5392H60.8209V39.6664H76.6382V54.5392V54.5392ZM94.4813 51.4581C94.4813 53.1528 93.0949 54.5395 91.3997 54.5395H79.1032V39.6667H91.3997C93.0947 39.6667 94.4813 41.0533 94.4813 42.7481V51.4581Z" fill="white"/>
</g>
<defs>
<filter id="filter0_d" x="0" y="0" width="120" height="120" filterUnits="userSpaceOnUse" color-interpolation-filters="sRGB">
<feFlood flood-opacity="0" result="BackgroundImageFix"/>
<feColorMatrix in="SourceAlpha" type="matrix" values="0 0 0 0 0 0 0 0 0 0 0 0 0 0 0 0 0 0 127 0"/>
<feOffset dy="2"/>
<feGaussianBlur stdDeviation="5"/>
<feColorMatrix type="matrix" values="0 0 0 0 0 0 0 0 0 0 0 0 0 0 0 0 0 0 0.25 0"/>
<feBlend mode="normal" in2="BackgroundImageFix" result="effect1_dropShadow"/>
<feBlend mode="normal" in="SourceGraphic" in2="effect1_dropShadow" result="shape"/>
</filter>
<clipPath id="clip0">
<rect width="74" height="74" fill="white" transform="translate(23 21)"/>
</clipPath>
</defs>
</svg>
